<svg xmlns="http://www.w3.org/2000/svg" xmlns:xlink="http://www.w3.org/1999/xlink" width="120" zoomAndPan="magnify" viewBox="0 0 90 89.999999" height="120" preserveAspectRatio="xMidYMid meet" version="1.0"><defs><g/></defs><rect x="-9" width="108" fill="#ffffff" y="-9" height="107.999999" fill-opacity="1"/><rect x="-9" width="108" fill="#ffffff" y="-9" height="107.999999" fill-opacity="1"/><g fill="#337b9d" fill-opacity="1"><g transform="translate(25.777176, 50.600078)"><g><path d="M 0.5 11.015625 C 0.5 8.503906 1.257812 5.90625 2.78125 3.21875 C 4.300781 0.539062 5.957031 -1.722656 7.75 -3.578125 C 12.644531 -8.671875 15.09375 -12.3125 15.09375 -14.5 C 15.09375 -15.15625 14.546875 -15.796875 13.453125 -16.421875 C 12.359375 -17.054688 11.179688 -17.40625 9.921875 -17.46875 C 10.515625 -19.851562 11.113281 -21.472656 11.71875 -22.328125 C 16.476562 -22.328125 20.394531 -21.316406 23.46875 -19.296875 C 26.550781 -17.285156 28.09375 -14.425781 28.09375 -10.71875 C 28.09375 -8.46875 26.734375 -5.441406 24.015625 -1.640625 C 21.304688 2.160156 18.59375 5.914062 15.875 9.625 C 13.164062 13.332031 11.8125 16.34375 11.8125 18.65625 C 11.8125 20.976562 12.96875 22.335938 15.28125 22.734375 C 17.007812 18.234375 19.789062 14.257812 23.625 10.8125 C 25.207031 11.28125 27.253906 12.601562 29.765625 14.78125 C 32.285156 16.96875 33.546875 18.523438 33.546875 19.453125 C 33.546875 21.171875 31.925781 22.972656 28.6875 24.859375 C 25.445312 26.742188 21.675781 27.6875 17.375 27.6875 C 13.070312 27.6875 9.179688 26.332031 5.703125 23.625 C 2.234375 20.914062 0.5 16.710938 0.5 11.015625 Z M 28.78125 -42.03125 C 30.101562 -40.75 30.765625 -39.015625 30.765625 -36.828125 C 30.765625 -34.640625 29.851562 -32.71875 28.03125 -31.0625 C 26.21875 -29.414062 24.117188 -28.59375 21.734375 -28.59375 C 19.359375 -28.59375 17.503906 -29.253906 16.171875 -30.578125 C 14.847656 -31.898438 14.1875 -33.632812 14.1875 -35.78125 C 14.1875 -37.9375 15.128906 -39.835938 17.015625 -41.484375 C 18.910156 -43.140625 21.015625 -43.96875 23.328125 -43.96875 C 25.640625 -43.96875 27.457031 -43.320312 28.78125 -42.03125 Z M 28.78125 -42.03125 "/></g></g></g></svg>