<?xml version="1.0" standalone="no"?>
<!DOCTYPE svg PUBLIC "-//W3C//DTD SVG 20010904//EN"
 "http://www.w3.org/TR/2001/REC-SVG-20010904/DTD/svg10.dtd">
<svg version="1.0" xmlns="http://www.w3.org/2000/svg"
 width="1000.000000pt" height="1000.000000pt" viewBox="0 0 1000.000000 1000.000000"
 preserveAspectRatio="xMidYMid meet">
<metadata>
Created by potrace 1.14, written by Peter Selinger 2001-2017
</metadata>
<g transform="translate(0.000000,1000.000000) scale(0.100000,-0.100000)"
fill="#000000" stroke="none">
<path d="M5260 9016 c-202 -43 -394 -149 -549 -304 -193 -192 -265 -358 -264
-607 1 -154 22 -248 82 -370 96 -192 251 -317 472 -377 74 -20 105 -23 274
-22 163 0 201 3 268 22 321 89 606 347 702 637 38 114 46 309 17 446 -58 282
-247 482 -527 560 -102 28 -372 36 -475 15z"/>
<path d="M4127 6563 c-19 -38 -48 -106 -65 -153 -34 -99 -95 -310 -90 -315 2
-2 44 -10 94 -19 254 -44 474 -193 474 -323 0 -228 -265 -628 -762 -1150 -295
-311 -504 -603 -664 -928 -132 -270 -182 -456 -191 -712 -16 -462 100 -887
324 -1184 151 -201 400 -390 686 -520 266 -122 488 -172 814 -185 410 -16 840
75 1191 253 386 196 625 426 648 624 11 97 -40 186 -209 358 -278 284 -619
537 -836 620 l-51 19 -102 -96 c-183 -175 -384 -417 -515 -622 -116 -183 -170
-283 -253 -475 -66 -151 -58 -147 -190 -92 -99 41 -186 125 -220 212 -29 75
-38 236 -20 340 32 180 156 447 325 700 56 82 195 278 310 435 350 478 723
998 810 1130 160 244 268 462 317 641 20 74 23 106 22 259 -1 156 -4 186 -27
274 -86 322 -299 562 -657 741 -287 143 -697 234 -1056 235 l-72 0 -35 -67z"/>
</g>
</svg>
